<?xml version="1.0" standalone="no"?>
<!DOCTYPE svg PUBLIC "-//W3C//DTD SVG 20010904//EN"
 "http://www.w3.org/TR/2001/REC-SVG-20010904/DTD/svg10.dtd">
<svg version="1.0" xmlns="http://www.w3.org/2000/svg"
 width="800.000000pt" height="800.000000pt" viewBox="0 0 800.000000 800.000000"
 preserveAspectRatio="xMidYMid meet">

<g transform="translate(0.000000,800.000000) scale(0.100000,-0.100000)"
fill="#000000" stroke="none">
<path d="M4545 7153 c-25 -10 -91 -18 -175 -22 l-135 -6 130 -6 c98 -4 142
-11 180 -26 63 -26 95 -17 95 25 0 52 -26 62 -95 35z"/>
<path d="M4540 6790 c-36 -15 -73 -19 -184 -19 -77 -1 -136 -4 -133 -7 4 -4
68 -10 144 -14 113 -5 146 -11 180 -28 54 -28 88 -28 107 0 21 29 20 51 -2 71
-23 21 -54 20 -112 -3z"/>
<path d="M4429 6462 c-43 -32 -79 -42 -157 -43 -77 -2 -71 -4 45 -15 42 -4 74
-13 98 -30 63 -42 125 -23 125 39 0 57 -63 85 -111 49z"/>
<path d="M4227 6169 c-9 -5 -24 -23 -32 -39 -14 -27 -13 -30 14 -59 34 -36 68
-40 99 -11 42 39 17 120 -36 120 -15 0 -35 -5 -45 -11z"/>
<path d="M4010 5893 c-31 -12 -50 -37 -50 -68 0 -63 71 -90 125 -47 15 12 37
22 49 22 19 1 18 2 -6 16 -16 8 -28 19 -28 25 0 15 -47 59 -62 58 -7 0 -20 -3
-28 -6z"/>
<path d="M3780 5587 c-38 -19 -49 -61 -23 -95 26 -35 64 -39 111 -11 40 24
100 28 206 15 37 -5 56 -4 52 2 -3 5 -49 13 -101 17 -88 6 -100 10 -139 40
-55 42 -75 48 -106 32z"/>
<path d="M3622 5248 c-46 -23 -37 -101 14 -114 18 -5 38 0 66 16 43 24 64 25
323 4 141 -12 75 4 -86 20 -169 17 -186 21 -238 60 -38 29 -45 30 -79 14z"/>
<path d="M3577 4862 c-32 -35 -15 -81 30 -85 11 0 37 7 57 17 36 17 50 17 185
7 80 -7 161 -14 179 -17 17 -4 32 -2 32 3 0 5 -78 15 -174 24 -160 14 -178 17
-213 42 -46 32 -73 34 -96 9z"/>
<path d="M3677 4503 c-14 -13 -6 -53 11 -62 13 -7 32 -5 62 5 42 14 98 14 229
-2 26 -3 41 -2 37 4 -3 5 -54 13 -113 17 -76 4 -119 12 -146 26 -39 19 -69 24
-80 12z"/>
<path d="M3870 4151 c0 -16 7 -18 55 -17 56 1 79 16 26 16 -17 0 -33 5 -36 10
-11 18 -45 11 -45 -9z"/>
<path d="M3985 3832 c29 -13 115 -21 115 -11 0 5 -12 9 -27 9 -16 0 -46 3 -68
5 -28 4 -34 3 -20 -3z"/>
<path d="M4114 3820 c0 -13 6 -20 16 -18 8 2 15 10 15 18 0 8 -7 16 -15 18
-10 2 -16 -5 -16 -18z"/>
<path d="M4290 3533 c-20 -14 -46 -16 -154 -14 -72 1 -139 4 -148 7 -10 3 -18
1 -18 -4 0 -5 63 -12 141 -15 113 -5 147 -10 173 -26 59 -36 108 17 51 55 -18
12 -24 11 -45 -3z"/>
<path d="M4360 3178 c-24 -20 -33 -20 -210 -15 -110 3 -163 2 -130 -3 30 -4
108 -8 173 -9 118 -1 142 -7 180 -42 31 -28 87 -7 87 33 0 57 -52 76 -100 36z"/>
<path d="M4289 2824 c-34 -26 -35 -26 -176 -21 -79 2 -143 0 -143 -4 0 -5 59
-9 130 -9 98 0 138 -4 160 -15 17 -9 30 -19 30 -24 0 -8 44 -31 59 -31 4 0 17
9 29 20 41 38 18 110 -34 110 -11 0 -36 -12 -55 -26z"/>
<path d="M4107 2510 c-30 -26 -43 -30 -91 -30 -31 0 -56 -4 -56 -10 0 -5 24
-10 53 -10 45 0 58 -5 86 -31 42 -38 84 -37 114 3 18 24 19 30 7 58 -12 28
-43 50 -70 50 -5 0 -25 -13 -43 -30z"/>
<path d="M3886 2229 c-50 -40 -24 -119 40 -119 68 0 97 68 49 115 -30 30 -54
31 -89 4z"/>
<path d="M3656 1939 c-51 -40 -21 -119 45 -119 22 0 39 9 57 30 24 28 32 30
94 30 37 0 70 5 73 10 4 6 -20 10 -66 10 -65 0 -74 3 -106 30 -40 35 -61 37
-97 9z"/>
<path d="M3460 1620 c-27 -27 -26 -75 2 -94 33 -23 61 -20 103 14 l38 30 153
0 c85 0 154 3 154 8 0 4 -64 6 -142 4 -163 -4 -175 -2 -212 33 -33 30 -69 32
-96 5z"/>
<path d="M3360 1260 c-11 -11 -20 -29 -20 -40 0 -26 34 -60 59 -60 15 0 65 35
75 52 1 1 96 4 211 8 l210 6 -206 2 c-202 2 -206 2 -239 27 -41 30 -64 31 -90
5z"/>
<path d="M3390 881 c-14 -27 -13 -37 6 -55 21 -22 51 -20 81 4 24 18 41 20
214 20 121 0 189 4 189 10 0 7 -68 9 -194 8 -173 -3 -196 -1 -213 15 -26 23
-70 22 -83 -2z"/>
</g>
</svg>
